<?xml version="1.0" encoding="UTF-8"?>
<svg version="1.1" xmlns="http://www.w3.org/2000/svg" width="128" height="128">
<path d="M0 0 C42.24 0 84.48 0 128 0 C128 42.24 128 84.48 128 128 C85.76 128 43.52 128 0 128 C0 85.76 0 43.52 0 0 Z " fill="#0C9A74" transform="translate(0,0)"/>
<path d="M0 0 C1.25361328 -0.01224609 2.50722656 -0.02449219 3.79882812 -0.03710938 C5.59803711 -0.04000977 5.59803711 -0.04000977 7.43359375 -0.04296875 C9.08766235 -0.04913208 9.08766235 -0.04913208 10.77514648 -0.05541992 C13.5625 0.1875 13.5625 0.1875 16.5625 2.1875 C17.19879033 7.38387102 15.97566544 11.30451041 14.23046875 16.09765625 C13.4522018 18.53258502 13.31659106 20.64644094 13.5625 23.1875 C15.1403125 23.80625 15.1403125 23.80625 16.75 24.4375 C21.59171965 27.10141804 22.54531431 31.46743036 24.12890625 36.5078125 C26.02913227 40.05973362 27.82920373 40.05498328 31.5625 41.1875 C32.4375 43.3125 32.4375 43.3125 32.5625 45.1875 C27.97328616 48.34404048 24.26879354 50.75952798 18.5625 51.1875 C16.24330894 47.63400558 15.0488746 44.42778879 13.875 40.375 C11.14557745 33.45761972 6.65004401 31.43600447 0.17504883 28.59838867 C-0.86099487 28.15910034 -0.86099487 28.15910034 -1.91796875 27.7109375 C-5.4375 26.1875 -5.4375 26.1875 -7.4375 24.1875 C-7.54738249 19.01386597 -6.76242733 13.83735465 -4.4375 9.1875 C-6.4175 9.1875 -8.3975 9.1875 -10.4375 9.1875 C-10.705625 9.909375 -10.97375 10.63125 -11.25 11.375 C-13.55514706 16.83455882 -13.55514706 16.83455882 -15.4375 19.1875 C-18.5 19.625 -18.5 19.625 -21.4375 19.1875 C-23.4375 17.1875 -23.4375 17.1875 -23.5 14.125 C-22.61956499 8.89741712 -18.9521124 4.9699697 -15.4375 1.1875 C-10.9888295 -1.03683525 -4.88528113 0.00250399 0 0 Z " fill="#F7FBFA" transform="translate(65.4375,60.8125)"/>
<path d="M0 0 C2.625 0.375 2.625 0.375 5 1 C6.16063604 5.25566547 5.76173392 8.6835078 5 13 C5.85658203 12.76603516 5.85658203 12.76603516 6.73046875 12.52734375 C11.3622718 11.45110724 15.9068753 10.75863955 20.140625 13.26953125 C21.92965858 14.76402882 23.53715631 16.1843805 25 18 C25 18.66 25 19.32 25 20 C24.01257813 20.13277344 23.02515625 20.26554687 22.0078125 20.40234375 C20.72648437 20.57894531 19.44515625 20.75554688 18.125 20.9375 C16.84882812 21.11152344 15.57265625 21.28554688 14.2578125 21.46484375 C11.12440546 21.81433227 11.12440546 21.81433227 9 23 C8.979375 24.27875 8.95875 25.5575 8.9375 26.875 C8.92589844 27.59429687 8.91429688 28.31359375 8.90234375 29.0546875 C8.87350758 31.08185404 8.87350758 31.08185404 10 33 C15.61 33 21.22 33 27 33 C25.99631506 38.01842472 25.70558528 38.94834154 22 42 C17.01595008 43.66134997 11.84344065 43.22649351 6.625 43.25 C4.91957031 43.2809375 4.91957031 43.2809375 3.1796875 43.3125 C2.08140625 43.31765625 0.983125 43.3228125 -0.1484375 43.328125 C-1.15052246 43.3374707 -2.15260742 43.34681641 -3.18505859 43.35644531 C-6.46694165 42.94087296 -8.33109353 41.91923349 -11 40 C-14.35095556 35.23373401 -14.17479736 28.62148294 -14 23 C-12.12947633 18.98183805 -9.91823854 16.12704378 -6 14 C-2.25 13.3125 -2.25 13.3125 1 13 C0.690625 12.113125 0.38125 11.22625 0.0625 10.3125 C-1.68 4.88 -1.68 4.88 -2 2 C-1.34 1.34 -0.68 0.68 0 0 Z " fill="#F5FAF9" transform="translate(66,15)"/>
<path d="M0 0 C3.45925163 1.2491742 6.14693203 2.67527795 9 5 C8.21448343 6.31618998 7.4213763 7.62785228 6.625 8.9375 C6.18414062 9.66839844 5.74328125 10.39929688 5.2890625 11.15234375 C4 13 4 13 2 14 C-1.6081916 14.03095262 -5.20549459 13.93223631 -8.8125 13.83984375 C-12.09468624 13.64753157 -12.09468624 13.64753157 -14 16 C-16.5625 16.1875 -16.5625 16.1875 -19 16 C-20 15 -20 15 -20.3125 12.3125 C-19.90501589 7.99316842 -18.0690289 5.0690289 -15 2 C-12.64686445 1.92728259 -10.29166332 1.91629132 -7.9375 1.9375 C-6.64714844 1.94652344 -5.35679688 1.95554687 -4.02734375 1.96484375 C-3.02832031 1.97644531 -2.02929688 1.98804687 -1 2 C-0.67 1.34 -0.34 0.68 0 0 Z " fill="#F5FAF9" transform="translate(55,88)"/>
<path d="M0 0 C2.6875 0.625 2.6875 0.625 4.6875 1.625 C5.06796247 5.40205497 5.03351017 7.12955987 2.82421875 10.29296875 C2.01597656 11.12441406 1.20773438 11.95585938 0.375 12.8125 C-0.42550781 13.65167969 -1.22601563 14.49085937 -2.05078125 15.35546875 C-2.79714844 16.10441406 -3.54351562 16.85335937 -4.3125 17.625 C-4.83199219 18.223125 -5.35148437 18.82125 -5.88671875 19.4375 C-7.3125 20.625 -7.3125 20.625 -10.8125 20.4375 C-14.3125 19.625 -14.3125 19.625 -17.3125 17.625 C-16.6525 14.655 -15.9925 11.685 -15.3125 8.625 C-13.6625 8.955 -12.0125 9.285 -10.3125 9.625 C-9.87679687 8.9753125 -9.44109375 8.325625 -8.9921875 7.65625 C-4.08278664 0.7703371 -4.08278664 0.7703371 0 0 Z " fill="#F7FBFA" transform="translate(100.3125,58.375)"/>
<path d="M0 0 C1.73956658 1.73956658 1.37190386 4.1936622 1.5625 6.5625 C1.68818359 8.08037109 1.68818359 8.08037109 1.81640625 9.62890625 C1.87699219 10.41136719 1.93757813 11.19382812 2 12 C-9.44345503 14.57880677 -9.44345503 14.57880677 -15 14 C-17.72286806 9.91569792 -17.38524534 7.85409123 -17 3 C-11.76278849 -0.49147434 -6.10696754 -0.20701585 0 0 Z " fill="#0A9170" transform="translate(91,35)"/>
<path d="M0 0 C5.56818182 0.56818182 5.56818182 0.56818182 7 2 C7.1875 4.9375 7.1875 4.9375 7 8 C5 10 5 10 2.5625 10.3125 C0 10 0 10 -1.875 8.8125 C-3 7 -3 7 -2.8125 4.4375 C-2 2 -2 2 0 0 Z " fill="#129474" transform="translate(60,39)"/>
<path d="M0 0 C0 0.66 0 1.32 0 2 C-0.804375 2.12375 -1.60875 2.2475 -2.4375 2.375 C-3.283125 2.58125 -4.12875 2.7875 -5 3 C-5.33 3.66 -5.66 4.32 -6 5 C-15.57 4.67 -25.14 4.34 -35 4 C-35 3.67 -35 3.34 -35 3 C-30.545 2.505 -30.545 2.505 -26 2 C-26 1.67 -26 1.34 -26 1 C-22.04169483 0.83265991 -18.08335144 0.66624177 -14.125 0.5 C-12.43310547 0.42845703 -12.43310547 0.42845703 -10.70703125 0.35546875 C-9.63066406 0.31035156 -8.55429688 0.26523437 -7.4453125 0.21875 C-5.95281982 0.1559082 -5.95281982 0.1559082 -4.43017578 0.09179688 C-2.95418617 0.0360432 -1.47704224 0 0 0 Z " fill="#1DA581" transform="translate(87,57)"/>
<path d="M0 0 C5.94 0 11.88 0 18 0 C18 1.32 18 2.64 18 4 C12.06 4 6.12 4 0 4 C0 2.68 0 1.36 0 0 Z " fill="#E9F5F1" transform="translate(20,69)"/>
<path d="M0 0 C6.27 0 12.54 0 19 0 C19 0.99 19 1.98 19 3 C12.73 3 6.46 3 0 3 C0 2.01 0 1.02 0 0 Z " fill="#FAFDFC" transform="translate(27,59)"/>
<path d="M0 0 C4.62 0 9.24 0 14 0 C14 0.99 14 1.98 14 3 C9.38 3 4.76 3 0 3 C0 2.01 0 1.02 0 0 Z " fill="#FCFDFD" transform="translate(24,80)"/>
<path d="M0 0 C3.465 1.98 3.465 1.98 7 4 C6.67 4.99 6.34 5.98 6 7 C2.22454612 5.90931332 -0.47043472 5.0916909 -3 2 C-2.01 2 -1.02 2 0 2 C0 1.34 0 0.68 0 0 Z " fill="#2DAA88" transform="translate(58,85)"/>
<path d="M0 0 C1.98 0.495 1.98 0.495 4 1 C3.67 2.65 3.34 4.3 3 6 C1.68 5.67 0.36 5.34 -1 5 C-0.67 3.35 -0.34 1.7 0 0 Z " fill="#EBF5F2" transform="translate(82,39)"/>
<path d="M0 0 C1.98 0 3.96 0 6 0 C5.67 0.99 5.34 1.98 5 3 C5 2.34 5 1.68 5 1 C2.19637616 2.86908256 -0.38485683 4.87961365 -3 7 C-1.125 2.25 -1.125 2.25 0 0 Z " fill="#4DB79A" transform="translate(55,70)"/>
</svg>
